<svg id="Grupo_2516" data-name="Grupo 2516" xmlns="http://www.w3.org/2000/svg" width="150.462" height="23.72" viewBox="0 0 150.462 23.72">
  <g id="Grupo_347" data-name="Grupo 347">
    <g id="Grupo_346" data-name="Grupo 346">
      <g id="Grupo_341" data-name="Grupo 341">
        <g id="Grupo_335" data-name="Grupo 335" transform="translate(0 17.991)">
          <path id="Caminho_599" data-name="Caminho 599" d="M4.3,195.864v4.029L.722,198.418v-1.669a4.8,4.8,0,0,0-.488-2.108L0,194.163Z" transform="translate(0 -194.163)" fill="#002c85"/>
        </g>
        <g id="Grupo_336" data-name="Grupo 336" transform="translate(4.863 10.269)">
          <path id="Caminho_600" data-name="Caminho 600" d="M56.776,112.515v3.8l-3.588-1.468,0-1.426a4.8,4.8,0,0,0-.477-2.1l-.237-.49Z" transform="translate(-52.479 -110.829)" fill="#002c85"/>
        </g>
        <g id="Grupo_337" data-name="Grupo 337" transform="translate(0.722 15.375)">
          <path id="Caminho_601" data-name="Caminho 601" d="M16.228,167.579,12,169.257,7.79,167.611l4.185-1.676Z" transform="translate(-7.79 -165.935)" fill="#002c85"/>
        </g>
        <path id="Caminho_602" data-name="Caminho 602" d="M68.57,84.62l-3.588,1.417-.642.253-.62-.242-3.588-1.4,3.588-1.436.6-.24.665.259Z" transform="translate(-54.56 -75.28)" fill="#0067c4"/>
        <g id="Grupo_338" data-name="Grupo 338" transform="translate(9.712 2.576)">
          <path id="Caminho_603" data-name="Caminho 603" d="M109.118,29.491v3.8l-3.588-1.474,0-1.426a4.8,4.8,0,0,0-.477-2.1l-.237-.49Z" transform="translate(-104.821 -27.799)" fill="#002c85"/>
        </g>
        <g id="Grupo_339" data-name="Grupo 339" transform="translate(5.572 7.688)">
          <path id="Caminho_604" data-name="Caminho 604" d="M68.57,84.612,64.338,86.29l-4.206-1.646,4.185-1.676Z" transform="translate(-60.132 -82.968)" fill="#002c85"/>
        </g>
        <g id="Grupo_340" data-name="Grupo 340" transform="translate(10.422)">
          <path id="Caminho_605" data-name="Caminho 605" d="M120.912,1.653,117.324,3.07l-.642.253-.62-.242-3.588-1.4L116.062.24l.6-.24.665.259Z" transform="translate(-112.474)" fill="#002c85"/>
        </g>
      </g>
      <g id="Grupo_345" data-name="Grupo 345" transform="translate(5.584 2.67)">
        <g id="Grupo_342" data-name="Grupo 342" transform="translate(0 15.347)">
          <path id="Caminho_606" data-name="Caminho 606" d="M60.269,200.145l3.575-1.436.008-1.664a4.8,4.8,0,0,1,.477-2.1l.237-.49-4.3,1.664Z" transform="translate(-60.269 -194.453)" fill="#01a1e5"/>
        </g>
        <g id="Grupo_343" data-name="Grupo 343" transform="translate(4.837 7.688)">
          <path id="Caminho_607" data-name="Caminho 607" d="M112.474,123.245l3.588-1.436,0-7.433a4.8,4.8,0,0,1,.477-2.1l.237-.49-4.3,1.664Z" transform="translate(-112.474 -111.784)" fill="#01a1e5"/>
        </g>
        <g id="Grupo_344" data-name="Grupo 344" transform="translate(9.687)">
          <path id="Caminho_608" data-name="Caminho 608" d="M169.113,28.817l-4.3,1.663V46.028l3.588-1.445,0-13.173a4.8,4.8,0,0,1,.477-2.1Z" transform="translate(-164.816 -28.817)" fill="#01a1e5"/>
        </g>
      </g>
    </g>
  </g>
  <g id="Grupo_373" data-name="Grupo 373" transform="translate(27.208)">
    <g id="Grupo_372" data-name="Grupo 372">
      <g id="Grupo_371" data-name="Grupo 371">
        <g id="Grupo_370" data-name="Grupo 370">
          <g id="Grupo_349" data-name="Grupo 349" transform="translate(0 1.725)">
            <g id="Grupo_348" data-name="Grupo 348">
              <path id="Caminho_609" data-name="Caminho 609" d="M294.57,34.863V22.092a8.163,8.163,0,0,0-.216-2.228,3.449,3.449,0,0,0-.719-1.246h6.637c4.337,0,6.733,1.821,6.733,5.079a4.662,4.662,0,0,1-2.588,4.385,11.594,11.594,0,0,1-5.271,1.318v5.463Zm4.6-7.787c.12,0,.455-.024.982-.072,1.534-.12,2.54-1.126,2.54-3.067a2.582,2.582,0,0,0-2.468-2.875c-.1,0-.455,0-1.054.024Z" transform="translate(-293.636 -18.618)" fill="#002c85"/>
            </g>
          </g>
          <g id="Grupo_351" data-name="Grupo 351" transform="translate(13.585 5.727)">
            <g id="Grupo_350" data-name="Grupo 350">
              <path id="Caminho_610" data-name="Caminho 610" d="M442.188,63.649a6.77,6.77,0,0,1,4.84-1.845,6.361,6.361,0,0,1,4.624,1.8,5.933,5.933,0,0,1,1.845,4.409,6.01,6.01,0,0,1-1.941,4.576,6.77,6.77,0,0,1-4.84,1.845,6.361,6.361,0,0,1-4.624-1.8,5.918,5.918,0,0,1-1.845-4.385A6.136,6.136,0,0,1,442.188,63.649Zm6.8,4.7c0-2.612-.766-4.121-2.132-4.121-1.414,0-2.132,1.2-2.132,3.57,0,2.612.791,4.169,2.156,4.169C448.3,71.963,448.992,70.765,448.992,68.345Z" transform="translate(-440.247 -61.804)" fill="#002c85"/>
            </g>
          </g>
          <g id="Grupo_353" data-name="Grupo 353" transform="translate(27.499)">
            <g id="Grupo_352" data-name="Grupo 352">
              <path id="Caminho_611" data-name="Caminho 611" d="M591.185,2.372a2.37,2.37,0,0,0-.767-1.653L595.474,0V17.97h-4.289Z" transform="translate(-590.418)" fill="#002c85"/>
            </g>
          </g>
          <g id="Grupo_355" data-name="Grupo 355" transform="translate(33.576)">
            <g id="Grupo_354" data-name="Grupo 354">
              <path id="Caminho_612" data-name="Caminho 612" d="M656.774,2.372a2.37,2.37,0,0,0-.767-1.653L661.063,0V17.97h-4.289Z" transform="translate(-656.007)" fill="#002c85"/>
            </g>
          </g>
          <g id="Grupo_357" data-name="Grupo 357" transform="translate(40.004 1.27)">
            <g id="Grupo_356" data-name="Grupo 356">
              <path id="Caminho_613" data-name="Caminho 613" d="M726.211,30.357V21.467a3.563,3.563,0,0,0-.838-2.707h5.055v11.6ZM728.137,13.7a2.181,2.181,0,1,1-2.213,2.209A2.159,2.159,0,0,1,728.137,13.7Z" transform="translate(-725.373 -13.704)" fill="#002c85"/>
            </g>
          </g>
          <g id="Grupo_359" data-name="Grupo 359" transform="translate(46.267 6.325)">
            <g id="Grupo_358" data-name="Grupo 358">
              <path id="Caminho_614" data-name="Caminho 614" d="M793.783,79.91V71a3.845,3.845,0,0,0-.815-2.731H797.9l.1,1.174a7.623,7.623,0,0,1,3.666-1.174c2.516,0,4.145,2.037,4.145,5.2V79.91h-4.217V72.579a1.852,1.852,0,0,0-1.758-1.867c-1.224-.042-1.836.6-1.836,1.963V79.91Z" transform="translate(-792.968 -68.266)" fill="#002c85"/>
            </g>
          </g>
          <g id="Grupo_361" data-name="Grupo 361" transform="translate(59.516 5.99)">
            <g id="Grupo_360" data-name="Grupo 360">
              <path id="Caminho_615" data-name="Caminho 615" d="M942.451,64.741a4.671,4.671,0,0,1,2.348.575l2.947-.671.767,1.486-1.557.479a4.509,4.509,0,0,1,1.39,3.187c0,2.9-2.42,4.816-5.894,4.816a5.74,5.74,0,0,1-2.612-.455c-.24.336-.264.647,0,.815.91.551,2.108.5,4.888.311s3.905.767,3.905,2.947c0,2.779-3.019,4.145-6.373,4.145-1.533,0-6.3-.216-6.3-3.067a2.375,2.375,0,0,1,1.006-2.133c.527,1.7,2.851,2.085,3.81,2.2.647.072,4.361.719,4.1-.887-.072-.431-1.2-.383-1.7-.383-1.438,0-5.726-.216-5.726-2.707a2.682,2.682,0,0,1,1.222-1.941,4.518,4.518,0,0,1-2.061-3.786C936.605,66.73,939,64.741,942.451,64.741Zm-.431,2.252c-1.222.192-1.39,1.677-1.174,3.067.192,1.27.839,2.468,2.037,2.276,1.27-.216,1.438-1.533,1.222-2.828S943.266,66.777,942.02,66.993Z" transform="translate(-935.958 -64.645)" fill="#002c85"/>
            </g>
          </g>
          <g id="Grupo_363" data-name="Grupo 363" transform="translate(72.382 13.729)">
            <g id="Grupo_362" data-name="Grupo 362">
              <path id="Caminho_616" data-name="Caminho 616" d="M1076.089,148.386a2.283,2.283,0,1,1-1.165,1.327A2.113,2.113,0,0,1,1076.089,148.386Z" transform="translate(-1074.814 -148.169)" fill="#002c85"/>
            </g>
          </g>
          <g id="Grupo_365" data-name="Grupo 365" transform="translate(77.557 6.182)">
            <g id="Grupo_364" data-name="Grupo 364">
              <path id="Caminho_617" data-name="Caminho 617" d="M1141.206,78.05a9.271,9.271,0,0,1-3.857.791,6.916,6.916,0,0,1-4.816-1.653,5.766,5.766,0,0,1,.287-8.745,8.7,8.7,0,0,1,5.607-1.725,15.531,15.531,0,0,1,2.995.335V69.9a6.141,6.141,0,0,0-2.875-.839,3,3,0,0,0-3.211,3.282c0,2.468,1.27,3.977,3.378,3.977a7.419,7.419,0,0,0,3.354-1.006Z" transform="translate(-1130.664 -66.717)" fill="#002c85"/>
            </g>
          </g>
          <g id="Grupo_367" data-name="Grupo 367" transform="translate(89.153 5.727)">
            <g id="Grupo_366" data-name="Grupo 366">
              <path id="Caminho_618" data-name="Caminho 618" d="M1257.756,63.649a6.769,6.769,0,0,1,4.84-1.845,6.361,6.361,0,0,1,4.624,1.8,5.933,5.933,0,0,1,1.845,4.409,6.01,6.01,0,0,1-1.941,4.576,6.77,6.77,0,0,1-4.84,1.845,6.361,6.361,0,0,1-4.624-1.8,5.919,5.919,0,0,1-1.845-4.385A6.136,6.136,0,0,1,1257.756,63.649Zm6.8,4.7c0-2.612-.766-4.121-2.132-4.121-1.414,0-2.132,1.2-2.132,3.57,0,2.612.791,4.169,2.156,4.169C1263.865,71.963,1264.56,70.765,1264.56,68.345Z" transform="translate(-1255.815 -61.804)" fill="#002c85"/>
            </g>
          </g>
          <g id="Grupo_369" data-name="Grupo 369" transform="translate(102.673 6.558)">
            <g id="Grupo_368" data-name="Grupo 368" transform="translate(0)">
              <path id="Caminho_619" data-name="Caminho 619" d="M1402.548,82.421V73.508a3.845,3.845,0,0,0-.815-2.731h4.936l.1,1.174a7.832,7.832,0,0,1,3.786-1.174,5.069,5.069,0,0,1,3.283,1.629c2.084-1.342,3.306-1.629,4.337-1.629,2.516,0,4.145,2.037,4.145,5.2v6.445H1418.1v-7c0-1.51-.6-2.276-1.821-2.276-1.126,0-1.7.623-1.7,1.869v7.4h-4.217V75.089a1.852,1.852,0,0,0-1.758-1.867c-1.224-.042-1.836.6-1.836,1.963v7.236Z" transform="translate(-1401.733 -70.775)" fill="#002c85"/>
            </g>
          </g>
        </g>
      </g>
    </g>
  </g>
</svg>
